<svg width="22" height="25" viewBox="0 0 22 25" fill="none" xmlns="http://www.w3.org/2000/svg">
<path d="M11 0C6.75898 0 3.3 3.57333 3.3 7.95455C3.3 10.6934 4.65352 13.1259 6.70312 14.5597C3.09089 16.1619 0.447689 19.6985 0.0515368 23.9012C-0.00547535 24.506 0.492487 25 1.1 25V25C1.70751 25 2.19324 24.5053 2.26308 23.9018C2.78533 19.389 6.48726 15.9091 11 15.9091C15.5127 15.9091 19.2147 19.389 19.7369 23.9018C19.8068 24.5053 20.2925 25 20.9 25V25C21.5075 25 22.0055 24.506 21.9485 23.9012C21.5523 19.6985 18.9091 16.1619 15.2969 14.5597C17.3465 13.1259 18.7 10.6934 18.7 7.95455C18.7 3.57333 15.241 0 11 0ZM11 2.27273C14.0508 2.27273 16.5 4.80291 16.5 7.95455C16.5 11.1062 14.0508 13.6364 11 13.6364C7.94922 13.6364 5.5 11.1062 5.5 7.95455C5.5 4.80291 7.94922 2.27273 11 2.27273Z" fill="#202020"/>
</svg>
