<svg width="25" height="19" viewBox="0 0 25 19" fill="none" xmlns="http://www.w3.org/2000/svg">
<path d="M12.5 1.60952C11.5431 1.60952 11.7036 0.997958 11.3434 0.69658C10.8807 0.309489 10.3391 0 9.65881 0C8.37321 0 7.49421 0.522351 6.81305 0.93361C6.13189 1.34487 5.64479 1.65115 4.6875 1.65115C4.68394 1.65113 4.68038 1.65113 4.67682 1.65115C4.66358 1.65133 4.65036 1.65187 4.63715 1.65276C4.61775 1.65415 4.59841 1.6563 4.57916 1.65921C4.42424 1.67959 4.27864 1.74854 4.16115 1.85718C4.04366 1.96582 3.95966 2.10916 3.91998 2.26872C3.87072 2.38849 2.87285 4.81732 1.87531 7.24153C0.948757 9.49366 0.0640881 11.6419 0.0640881 11.6419C0.0216263 11.7458 -0.000187356 11.8577 1.21219e-06 11.9708C1.21219e-06 13.0875 0.617192 14.055 1.47705 14.6911C2.33691 15.3271 3.46119 15.6859 4.6875 15.6859C5.91382 15.6859 7.03809 15.3271 7.89795 14.6911C8.75781 14.055 9.375 13.0875 9.375 11.9708C9.37519 11.8577 9.35337 11.7458 9.31091 11.6419L5.79529 3.09752C6.50946 2.91344 7.12741 2.6469 7.5882 2.36869C8.27442 1.95438 8.74286 1.65115 9.65881 1.65115C9.88105 1.65115 10.5256 2.06864 11.0123 2.62507C11.0295 2.64474 11.0367 2.65875 11.0535 2.67828C10.9791 2.87084 10.9375 3.08138 10.9375 3.3023C10.9375 3.91236 11.2534 4.43861 11.7187 4.72449V18.1627C11.7173 18.2721 11.7364 18.3807 11.775 18.4822C11.8136 18.5837 11.8709 18.6761 11.9436 18.754C12.0163 18.8319 12.1029 18.8938 12.1984 18.936C12.294 18.9783 12.3965 19 12.5 19C12.6035 19 12.706 18.9783 12.8016 18.936C12.8971 18.8938 12.9837 18.8319 13.0564 18.754C13.1291 18.6761 13.1864 18.5837 13.225 18.4822C13.2636 18.3807 13.2827 18.2721 13.2813 18.1627V4.72449C13.7466 4.43861 14.0625 3.91236 14.0625 3.3023C14.0625 3.08138 14.0209 2.87084 13.9465 2.67828C13.9633 2.65872 13.9705 2.64478 13.9877 2.62507C14.4744 2.06864 15.119 1.65115 15.3412 1.65115C16.2571 1.65115 16.7256 1.95438 17.4118 2.36869C17.8726 2.6469 18.4905 2.91344 19.2047 3.09752C18.9107 3.81224 18.3316 5.22126 17.5003 7.24153C16.5738 9.49366 15.6891 11.6419 15.6891 11.6419C15.6466 11.7458 15.6248 11.8577 15.625 11.9708C15.625 13.0875 16.2422 14.055 17.102 14.6911C17.9619 15.3271 19.0862 15.6859 20.3125 15.6859C21.5388 15.6859 22.6631 15.3271 23.5229 14.6911C24.3828 14.055 25 13.0875 25 11.9708C25.0002 11.8577 24.9784 11.7458 24.9359 11.6419L21.077 2.26066C21.0336 2.09223 20.9408 1.94267 20.8119 1.83345C20.6831 1.72423 20.5248 1.66097 20.3598 1.65276C20.3441 1.65172 20.3283 1.65118 20.3125 1.65115C19.3552 1.65115 18.8681 1.34487 18.1869 0.93361C17.5058 0.522351 16.6268 0 15.3412 0C14.6609 0 14.1193 0.309489 13.6566 0.69658C13.194 1.08367 13.4569 1.60952 12.5 1.60952ZM4.6875 4.54873L7.23114 10.7325H2.14386C2.48049 9.91437 2.71173 9.35062 3.30811 7.90102C3.98043 6.26716 4.2907 5.51325 4.6875 4.54873ZM20.3125 4.54873L22.8561 10.7325H17.7689C18.1055 9.91437 18.3367 9.35062 18.9331 7.90102C19.6054 6.26716 19.9157 5.51325 20.3125 4.54873ZM1.67847 12.3836H7.69653C7.58809 12.7188 7.39504 13.0477 7.00226 13.3382C6.44825 13.748 5.61822 14.0348 4.6875 14.0348C3.75678 14.0348 2.92675 13.748 2.37274 13.3382C1.97996 13.0477 1.78692 12.7188 1.67847 12.3836ZM17.3035 12.3836H23.3215C23.2131 12.7188 23.02 13.0477 22.6273 13.3382C22.0732 13.748 21.2432 14.0348 20.3125 14.0348C19.3818 14.0348 18.5517 13.748 17.9977 13.3382C17.605 13.0477 17.4119 12.7188 17.3035 12.3836Z" fill="#FDA053"/>
</svg>
