<svg width="24" height="24" viewBox="0 0 24 24" fill="none" xmlns="http://www.w3.org/2000/svg">
<g clip-path="url(#clip0_159_46)">
<path d="M12.0272 2C11.6992 2 11.392 2.16164 11.205 2.43164L6.66787 9H2.00186C1.68886 9 1.39498 9.14553 1.20498 9.39453C1.01698 9.64253 0.95306 9.96463 1.03506 10.2656L3.59561 19.5312C3.83461 20.3953 4.62734 21 5.52334 21H12.2948C12.1982 20.6757 12.124 20.3419 12.0741 20H12.08C12.033 19.673 11.9999 19.34 11.9999 19C11.9999 15.134 15.1339 12 18.9999 12C19.8009 12 20.5671 12.1407 21.2831 12.3887C21.6209 12.5058 21.9493 12.6439 22.2616 12.8086L22.9628 10.2676C23.0458 9.96658 22.9828 9.64253 22.7948 9.39453C22.6048 9.14553 22.31 9 21.998 9H17.3397L12.8534 2.43555C12.6674 2.16355 12.3602 2.001 12.0312 2H12.0272ZM12.0233 4.76562L14.9159 9H9.09756L12.0233 4.76562ZM18.9999 14C16.2389 14 13.9999 16.239 13.9999 19C13.9999 21.761 16.2389 24 18.9999 24C21.7609 24 23.9999 21.761 23.9999 19C23.9999 16.239 21.7609 14 18.9999 14ZM17.9999 16H19.9999V18H21.9999V20H19.9999V22H17.9999V20H15.9999V18H17.9999V16Z" fill="#6C757D"/>
</g>
<defs>
<clipPath id="clip0_159_46">
<rect width="24" height="24" fill="white"/>
</clipPath>
</defs>
</svg>
